<?xml version="1.0" standalone="no"?>
<!DOCTYPE svg PUBLIC "-//W3C//DTD SVG 20010904//EN"
 "http://www.w3.org/TR/2001/REC-SVG-20010904/DTD/svg10.dtd">
<svg version="1.0" xmlns="http://www.w3.org/2000/svg"
 width="300.000000pt" height="277.000000pt" viewBox="0 0 300.000000 277.000000"
 preserveAspectRatio="xMidYMid meet">
<metadata>
Created by potrace 1.10, written by Peter Selinger 2001-2011
</metadata>
<g transform="translate(0.000000,277.000000) scale(0.100000,-0.100000)"
fill="#4b99ec" stroke="none">
<path d="M845 2280 c-242 -63 -398 -221 -441 -448 -8 -41 -14 -91 -14 -113 l0
-39 88 0 87 0 2 71 c5 165 71 280 193 338 73 34 230 42 312 16 120 -39 255
-148 308 -248 14 -26 27 -47 30 -47 3 0 14 15 25 33 28 47 122 144 187 193
164 121 374 110 511 -28 29 -29 65 -78 80 -109 30 -60 50 -158 41 -196 -6 -23
-5 -23 80 -23 l86 0 -6 43 c-32 237 -119 403 -259 493 -220 140 -574 78 -706
-126 -18 -27 -33 -50 -33 -50 -1 0 -39 37 -86 83 -62 60 -105 92 -160 119
-125 60 -205 70 -325 38z m204 -21 c53 -12 162 -64 178 -85 6 -8 13 -14 15
-13 4 4 42 -28 99 -83 26 -27 57 -48 67 -48 10 0 37 18 58 41 84 89 111 111
169 139 129 62 280 74 405 30 36 -13 68 -28 72 -34 4 -6 8 -8 8 -4 0 9 26 -11
92 -71 85 -77 168 -267 168 -383 l0 -38 -45 0 c-38 0 -45 3 -49 23 -27 140
-34 159 -79 232 -22 35 -119 125 -151 139 -46 21 -157 46 -203 46 -40 0 -173
-36 -183 -49 -3 -4 -25 -19 -50 -33 -43 -25 -164 -139 -182 -173 -14 -24 -35
-18 -59 18 -30 42 -113 121 -165 157 -84 57 -147 74 -279 74 -116 1 -122 0
-185 -31 -81 -40 -123 -81 -160 -153 -25 -50 -57 -178 -55 -220 1 -22 -15 -30
-61 -30 -50 0 -57 13 -49 79 8 57 48 180 73 220 31 51 120 140 157 158 19 9
35 20 35 24 0 7 83 39 165 63 59 17 133 19 194 5z"/>
<path d="M1348 1615 l4 -105 -96 0 -96 0 0 -60 0 -60 96 0 96 0 -3 -97 -3 -96
57 -1 57 -1 0 98 0 97 100 0 100 0 0 60 0 60 -100 0 -100 0 0 105 0 105 -57 0
-58 0 3 -105z m82 -16 c0 -102 15 -119 104 -119 69 0 90 -9 84 -36 -3 -16 -14
-19 -77 -22 -96 -4 -110 -19 -111 -113 0 -52 -4 -68 -16 -73 -30 -12 -34 -5
-34 60 0 63 -11 101 -34 116 -6 4 -42 8 -79 8 l-68 0 3 28 c3 26 5 27 76 33
90 7 98 16 101 118 2 74 11 94 38 84 9 -4 13 -27 13 -84z"/>
<path d="M445 1501 c-2 -2 10 -25 28 -51 29 -42 130 -152 448 -485 186 -195
414 -437 442 -469 l28 -32 278 281 c440 443 571 581 640 671 35 47 62 86 60
88 -2 1 -48 0 -101 -2 l-97 -4 -92 -96 c-205 -216 -678 -702 -682 -702 -2 0
-57 55 -123 122 -65 67 -214 219 -330 337 -116 119 -238 244 -270 277 l-59 62
-83 3 c-46 3 -85 3 -87 0z m243 -118 c198 -208 659 -675 679 -688 33 -22 57
-8 156 90 48 48 87 88 87 89 0 1 57 61 128 133 70 73 199 206 287 298 149 153
163 166 200 169 51 4 65 -1 65 -24 0 -26 -47 -79 -319 -359 -207 -215 -272
-280 -323 -328 -7 -6 -64 -63 -126 -127 -63 -64 -121 -116 -129 -116 -9 0 -24
10 -35 23 -10 12 -56 60 -101 107 -45 47 -91 96 -103 110 -11 14 -32 34 -45
46 -13 12 -42 42 -64 67 -47 53 -314 335 -400 422 -89 90 -145 159 -145 178 0
5 23 6 52 4 50 -5 54 -8 136 -94z"/>
</g>
</svg>
